# xmcd
#
# Track frame offsets:
#	225
#	10635
#	21772
#	35297
#	51530
#	63592
#	74335
#	86920
#	100537
#	113912
#	130855
#	147045
#	158337
#	171075
#	183292
#	197257
#	212070
#	224212
#	236000
#	248320
#	262655
#	279055
#	296940
#
# Disc length: 4323
#
# Revision: 1
# Processed by: cddbd v1.5.1PL0 Copyright (c) Steve Scherf et al.
# Submitted via: Grip 2.96
# Normalized: r0:TDELIM( - )
#
DISCID=3f10e017
DTITLE=Various Artist - Golden Memories
DYEAR=1900
DGENRE=
TTITLE0=Everly Brothers - All I Have To Do Is Dream
TTITLE1=Ritchie Vallens - Doma
TTITLE2=Scott McKenzie - San Francisco
TTITLE3=Righteous Brothers - Unchained Melody
TTITLE4=The Mamas and The Papas - California Dreamin'
TTITLE5=Paul Anka - Crazy Love
TTITLE6=Elvis Presley - Love Me Tender
TTITLE7=Ben E. King - Stand By Me
TTITLE8=Percy Sledge - When A Man Loves A Woman
TTITLE9=The Carpenters - Do You Remember
TTITLE10=Gene Pitney - Something's Gotten Hold Of My Heart
TTITLE11=The Cascades - Rhythm Of The Rain
TTITLE12=Andy Williams - Feelings
TTITLE13=The Rolling Stones - As Tears Go By
TTITLE14=Shakin Stevens - Give Me Your Heart Tonight
TTITLE15=Nilson - Without You
TTITLE16=The Shangri-las - Past, Present and Future
TTITLE17=The Platters - The Great Pretender
TTITLE18=Trini Lopez - Besame Mucho
TTITLE19=Engelbert Humperding - The Way It Used To Be
TTITLE20=Leo Sayer - More Than I Can Say
TTITLE21=Roy Orbison - California Blue
TTITLE22=The Flesh Failures - Let It Sunshine In
EXTD=
EXTT0=
EXTT1=
EXTT2=
EXTT3=
EXTT4=
EXTT5=
EXTT6=
EXTT7=
EXTT8=
EXTT9=
EXTT10=
EXTT11=
EXTT12=
EXTT13=
EXTT14=
EXTT15=
EXTT16=
EXTT17=
EXTT18=
EXTT19=
EXTT20=
EXTT21=
EXTT22=
PLAYORDER=
